<?xml version="1.0" encoding="utf-8"?>
<!-- Generator: Adobe Illustrator 21.0.0, SVG Export Plug-In . SVG Version: 6.00 Build 0)  -->
<svg version="1.1"
	 id="svg3438" inkscape:export-filename="/Users/AbiZelip/Documents/Azellaz/Logo Soft Grey v5.png" inkscape:export-xdpi="150" inkscape:export-ydpi="150" inkscape:version="0.91 r13725" sodipodi:docname="AZ Logo Soft Black V3.svg" xmlns:cc="http://creativecommons.org/ns#" xmlns:dc="http://purl.org/dc/elements/1.1/" xmlns:inkscape="http://www.inkscape.org/namespaces/inkscape" xmlns:rdf="http://www.w3.org/1999/02/22-rdf-syntax-ns#" xmlns:sodipodi="http://sodipodi.sourceforge.net/DTD/sodipodi-0.dtd" xmlns:svg="http://www.w3.org/2000/svg"
	 xmlns="http://www.w3.org/2000/svg" xmlns:xlink="http://www.w3.org/1999/xlink" x="0px" y="0px" viewBox="0 0 65.3 62.6"
	 style="enable-background:new 0 0 65.3 62.6;" xml:space="preserve">
<style type="text/css">
	.st0{fill:#151313;}
</style>
<sodipodi:namedview  bordercolor="#666666" borderopacity="1" gridtolerance="10" guidetolerance="10" id="namedview3440" inkscape:current-layer="svg3438" inkscape:cx="32.650002" inkscape:cy="12.617308" inkscape:guide-bbox="true" inkscape:pageopacity="0" inkscape:pageshadow="2" inkscape:window-height="852" inkscape:window-maximized="1" inkscape:window-width="1440" inkscape:window-x="0" inkscape:window-y="0" inkscape:zoom="3.5665295" objecttolerance="10" pagecolor="#ffffff" showgrid="false" showguides="false">
	<inkscape:grid  id="grid3450" type="xygrid"></inkscape:grid>
	<sodipodi:guide  id="guide3470" orientation="0,1" position="85.875,287.9375"></sodipodi:guide>
	<sodipodi:guide  id="guide3472" orientation="1,0" position="111,295.25"></sodipodi:guide>
	<sodipodi:guide  id="guide3482" orientation="1,0" position="107.5,265"></sodipodi:guide>
	<sodipodi:guide  id="guide3486" orientation="0,1" position="98.125001,112.6875"></sodipodi:guide>
	<sodipodi:guide  id="guide3488" orientation="0,1" position="157.15448,289.0299"></sodipodi:guide>
	<sodipodi:guide  id="guide3492" orientation="1,0" position="166.75,182"></sodipodi:guide>
	<sodipodi:guide  id="guide3494" orientation="1,0" position="170,167"></sodipodi:guide>
	<sodipodi:guide  id="guide3496" orientation="0,1" position="107.5,228.5"></sodipodi:guide>
	<sodipodi:guide  id="guide3498" orientation="0,1" position="94.25,231.75"></sodipodi:guide>
	<sodipodi:guide  id="guide3500" orientation="1,0" position="156.97771,293.00737"></sodipodi:guide>
	<sodipodi:guide  id="guide3502" orientation="1,0" position="157.94998,231.75"></sodipodi:guide>
	<sodipodi:guide  id="guide3504" orientation="1,0" position="125.24629,179.33996"></sodipodi:guide>
	<sodipodi:guide  id="guide3506" orientation="1,0" position="126.0625,121.4375"></sodipodi:guide>
	<sodipodi:guide  id="guide3508" orientation="0,1" position="105.18213,169.61724"></sodipodi:guide>
	<sodipodi:guide  id="guide3510" orientation="0,1" position="102.875,172.6875"></sodipodi:guide>
	<sodipodi:guide  id="guide3376" orientation="1,0" position="140.18392,230.16326"></sodipodi:guide>
	<sodipodi:guide  id="guide3378" orientation="1,0" position="136.91355,228.5"></sodipodi:guide>
	<sodipodi:guide  id="guide4164" orientation="0,1" position="112.5625,179.5"></sodipodi:guide>
	<sodipodi:guide  id="guide4168" orientation="0,1" position="117.25,119.3125"></sodipodi:guide>
	<sodipodi:guide  id="guide4170" orientation="0,1" position="123.3125,281.9375"></sodipodi:guide>
	<sodipodi:guide  id="guide4191" orientation="0,1" position="140.18392,161.39712"></sodipodi:guide>
	<sodipodi:guide  id="guide4194" orientation="0,1" position="15.75,192"></sodipodi:guide>
	<sodipodi:guide  id="guide4196" orientation="0,1" position="17.25,200"></sodipodi:guide>
	<sodipodi:guide  id="guide4202" orientation="1,0" position="-0.09668366,55.109681"></sodipodi:guide>
	<sodipodi:guide  id="guide4204" orientation="1,0" position="65.454838,58.977027"></sodipodi:guide>
	<sodipodi:guide  id="guide4206" orientation="0,1" position="70.482388,62.651006"></sodipodi:guide>
	<sodipodi:guide  id="guide4208" orientation="0,1" position="72.12601,-0.1933673"></sodipodi:guide>
	<sodipodi:guide  id="guide4210" orientation="0,1" position="-5.0275503,2.9005095"></sodipodi:guide>
	<sodipodi:guide  id="guide4212" orientation="0,1" position="-5.8010196,59.267078"></sodipodi:guide>
	<sodipodi:guide  id="guide4214" orientation="1,0" position="16.844344,57.696714"></sodipodi:guide>
	<sodipodi:guide  id="guide4216" orientation="1,0" position="48.984127,51.113867"></sodipodi:guide>
</sodipodi:namedview>
<path id="rect3518-6-4-3" inkscape:connector-curvature="0" sodipodi:nodetypes="ccccc" class="st0" d="M49.1,0.1L65.4,0v3.3
	L49.1,3.3V0.1z"/>
<path id="rect3522-8-7-7" inkscape:connector-curvature="0" class="st0" d="M49,59.7h16.6v3.1H49V59.7z"/>
<path id="path3382-8-7-6" inkscape:connector-curvature="0" class="st0" d="M36.5,52.6c-0.2,0-0.4,0-0.5-0.1
	c-0.1-0.1-0.1-0.4-0.1-0.8v-0.6c0-0.4,0.1-0.9,0.3-1.5l10.3-34.9c0.1-0.5,0.1-0.8,0.1-0.8c0-0.4-0.1-0.6-0.3-0.6h-9.6
	c-0.2,0-0.3,0-0.4,0c-0.1,0-0.2-0.1-0.2-0.2C36,12.8,36,12.6,36,12.3v-0.8c0-0.4,0-0.7,0.1-0.8c0.1-0.1,0.3-0.1,0.6-0.1h13.1
	c0.2,0,0.4,0,0.5,0.1c0.1,0.1,0.2,0.4,0.2,0.8V12c0,0.8-0.1,1.7-0.4,2.5L40,48.9c-0.1,0.3-0.1,0.5-0.1,0.7c0,0.3,0.1,0.4,0.2,0.4h10
	c0.2,0,0.3,0,0.4,0c0.1,0,0.1,0.1,0.2,0.2c0.1,0.1,0.1,0.3,0.1,0.6v0.9c0,0.3,0,0.5-0.1,0.6c-0.1,0.1-0.1,0.2-0.2,0.3
	c-0.1,0-0.2,0-0.4,0L36.5,52.6L36.5,52.6z"/>
<path id="rect3512-0-3-0" inkscape:connector-curvature="0" class="st0" d="M0,0.1h16.9v3.4H0L0,0.1z"/>
<path id="rect3516-9-0-9" inkscape:connector-curvature="0" class="st0" d="M2.2,59.7h14.7v3.2H2.2L2.2,59.7z"/>
<path id="rect3514-9-6-7" inkscape:connector-curvature="0" sodipodi:nodetypes="ccccc" class="st0" d="M0,3h3.5v59.9H0L0,3z"/>
<path id="rect3520-4-7-8" inkscape:connector-curvature="0" sodipodi:nodetypes="ccccc" class="st0" d="M62.2,3.1h3.2l0,59.4h-3.2
	L62.2,3.1z"/>
<path id="path3368-3-9-2-6" inkscape:connector-curvature="0" sodipodi:nodetypes="cccssssccccsssccccccccccc" class="st0" d="
	M19.6,10.4c-0.5,0.1-0.9,0.6-1.1,1.6l-5,38.9c0,0.1,0,0.3,0,0.4v0.3c0,0.6,0.1,0.9,0.4,0.9h1.7c0.3,0,0.3,0.2,0.9-0.1
	c0,0,2.4-14,3.3-20.9c2.3,1.6,4.9,3.4,4.9,3.4l4.7,16.3c0.2,1,0.5,1.4,1.2,1.4h2.1c0.3,0,0.4-0.3,0.4-0.9c0-0.1,0-0.2-0.1-0.4
	c0-0.2-0.1-0.3-0.1-0.4l-7.1-29.4L23.4,12c-0.2-1-0.5-1.6-1-1.6H19.6z M21.6,16.4l3.1,15.2l-4.4-3.3L21,16.4L21.6,16.4z"/>
</svg>
